<?xml version="1.0" encoding="utf-8"?>
<!-- Generator: Adobe Illustrator 21.0.0, SVG Export Plug-In . SVG Version: 6.00 Build 0)  -->
<svg version="1.1" id="bartender_x5F_ready" xmlns="http://www.w3.org/2000/svg" xmlns:xlink="http://www.w3.org/1999/xlink"
	 x="0px" y="0px" viewBox="0 0 250 250" style="enable-background:new 0 0 250 250;" xml:space="preserve">
<style type="text/css">
	.st0{fill:#E9E9E9;}
</style>
<path class="st0" d="M159,84.6c-0.2-3.2-0.6-6.5-1.2-10.8c-0.6-4.2-2.3-8-4.7-11.5c-5.2-7.3-12.9-11.6-22.6-12.8
	c-8.8-1-16.8,0.6-24,4.9c-6.1,3.6-10.3,8.6-12.7,14.7c-2,5-2.3,10.1-2.4,15.9c-0.3,3.6,0.8,8.7,2.8,13.8c2.8,7,7.1,12.9,12.7,17.3
	c4.2,3.3,8.7,5.3,13.6,6.2c1.5,0.3,3.2,0.5,4.7,0.5c2.4,0,4.8-0.4,7.1-1c3.6-1,7.1-2.7,10-4.9c5.3-3.8,9.5-9,12.5-15.2
	C157.9,95.5,159.2,89.9,159,84.6z M108.1,60.1c4.2-2.8,9-4.4,14.5-5c5.2-0.5,9.7,0.1,14.1,1.7c7.6,2.8,12.4,7.7,14.8,14.7
	c0.1,0.3,0.2,0.6,0.3,0.9l-7.9-5.3l-0.5,1.4c-1.4,3.6-3.2,6.2-5.6,8.2c-4.5,3.7-9.1,5-14.1,4.1c-4.3-0.8-8.1-2.4-11-4.9
	c-2.2-1.7-4.9-2.6-7.7-2.6c-2.5,0-5.1,0.7-7.2,2.1C99.1,68.8,102.6,63.7,108.1,60.1z M153.4,83.6v0.7c-0.5,6.8-2.2,12.8-5.1,17.8
	c-3.1,5.2-7.5,9.4-13.3,12.6c-3.5,1.9-7.4,2.7-11.4,2.4c-5.7-0.5-11-3.1-15.6-7.5c-5-4.8-8.2-10.3-9.9-16.6c-0.5-2.2-0.8-4.5-1-6.8
	c-0.1-0.9-0.2-1.8-0.3-2.7c-0.1-0.6,0-1.1,0.9-1.5c0.8-0.5,1.5-0.9,2.3-1.3c1-0.6,1.9-1.2,2.9-1.6c0.6-0.3,1.3-0.4,2-0.4
	c1,0,2.1,0.4,3.2,1.2c6,4.2,11,6.2,16.4,6.6c9,0.6,16.3-3,21.5-10.8c0-0.1,0.1-0.1,0.1-0.2c0,0,0.1,0,0.1,0.1c2.1,1.5,4.2,3,6.2,4.3
	c0.8,0.5,1.2,1.1,1.1,2.1C153.4,82.3,153.4,83,153.4,83.6z"/>
<path class="st0" d="M139.8,127.7v1.4c0.2,1.3,0.2,2.6,0.1,4c0,1.4-0.5,2.4-1.5,3.1c-0.5,0.4-1.1,0.5-1.7,0.5
	c-0.5,0-1.1-0.1-1.7-0.4c-0.5-0.2-1.1-0.5-1.6-0.6c-2.3-1-4.7-2-7.1-2.8c-0.6-0.2-1.4-0.3-2,0c-2.4,0.9-4.9,1.9-7.2,2.9
	c-0.5,0.3-1.1,0.5-1.6,0.7c-1.1,0.5-2.2,0.4-3.1-0.2c-0.8-0.5-1.4-1.4-1.4-2.5v-6.9c0-1.2,0.5-2.2,1.4-2.6c0.8-0.5,1.9-0.6,3.1-0.2
	l1.2,0.5c2.7,1.1,5.4,2.3,8.2,3.3c0.3,0.1,0.7,0.1,1-0.1c1.3-0.5,2.4-1,3.7-1.5c1.7-0.7,3.4-1.4,5.3-2.2c1.9-0.7,3.1-0.4,3.7,0.1
	C138.9,124.5,139.8,125.5,139.8,127.7z"/>
<path class="st0" d="M125,8.8c-64,0-116,52-116,116c0,32.4,13.4,61.8,34.9,82.9c2,2,4,3.8,6.2,5.6v0c9.2,7.9,19.8,14.3,31.2,18.9
	c1.3,0.6,2.7,1.1,4.1,1.6c12.4,4.5,25.7,7,39.6,7c13.5,0,26.5-2.3,38.6-6.6c1.7-0.6,3.3-1.2,5-1.9c11.2-4.5,21.5-10.8,30.6-18.5
	c2.4-2,4.7-4.1,6.9-6.3c21.5-21,34.8-50.4,34.8-82.8C241,60.8,189,8.8,125,8.8z M51.2,206.3c0,0,0-0.1,0-0.2c1.4-4.5,3.1-9,4.8-13.4
	c0.5-1.5,1.2-2.9,1.7-4.4c0.9-2.3,1.9-4.7,2.8-6.7l0.4-0.9c0.2-0.5,0.4-0.9,0.6-1.4c0.1-0.3,0.4-0.5,0.5-0.6
	c1.6,0.6,3.3,1.3,4.9,1.9l0.4,0.2c0.9,0.4,1.9,0.7,2.8,1.1l0.3,0.1c0.8,0.3,1.5,0.6,2.4,0.9c1.9,0.7,4.3,1.6,6.6,2.5
	c0,1.3,0.2,4.3,0.5,8.3c0.1,1.1,0.2,2.4,0.2,2.8l0.1,1.2c0.2,4.8,0.5,10.1,0.6,15.5c0.1,4.2,0.2,8.4,0.3,12.4
	C70.1,220.8,60,214.2,51.2,206.3z M65.3,171.8c0-0.5,0.1-1.1,0.3-1.3c2.6-5.6,5.2-11.2,7.9-16.8l0.4-0.8c0.4,1.3,0.8,2.5,1.1,3.8
	c1,3.9,1.8,7.7,2.4,11.3c0.5,3.1,1,6.2,1.4,9.1C73.9,175.2,69.5,173.5,65.3,171.8z M168.5,158.5c-0.4,1.8-0.7,3.7-1.1,6
	c-0.4,2.1-0.7,4.3-1.2,6.7c-0.4,2.6-0.8,5.2-1.2,7.8l-0.1,0.6c-0.3,1.7-0.6,5.2-1.1,9c-0.3,2.1-0.5,4.3-0.7,5.9
	c-0.1,0.5-0.1,0.8-0.2,1.2v0.3c0,0.1,0,0.2,0,0.2v0.1c-0.4,6.2-0.8,13.7-1.1,21.3c-0.2,3.9-0.3,7.6-0.4,11.1
	c-11.4,4.1-23.8,6.3-36.6,6.3c-13,0-25.4-2.2-37-6.4c-0.1-2.1-0.1-4.3-0.2-6.4l-0.1-3.2c-0.2-5.8-0.4-11.9-0.5-17.8
	c-0.2-3.9-0.5-8.2-0.8-12.8c-0.5-4.8-1-10-1.7-16.5v-0.4c-0.3-2.5-0.6-5.2-1.3-7.8c-1.4-5.3-2.8-10.5-4.3-15.6l-0.5-1.4
	c3.3-1.5,6.5-3.2,9.7-4.8l1.6-0.8c1-0.4,2-1,3-1.4c1.5-0.7,3-1.5,4.4-2.2l0.6-0.3c2.4,5.8,5.3,12.4,9.6,18.4
	c4.3,6.1,9.2,10.1,14.9,12.7c1.3,0.5,2.9,0.6,4.2,0.3c4-1.1,7.7-3.4,11.2-6.8c4.6-4.5,8.2-10.3,11.3-18.2c0.8-2.2,1.6-4.3,2.4-6.6
	l0.5-1.2c0.2,0.1,0.5,0.2,0.6,0.3c1.9,0.9,3.8,1.8,5.7,2.7c4.3,2,8.6,4.2,13,6.2c0.1,0,0.1,0,0.1,0.1v0.1c-1,4.1-1.8,8.2-2.6,12.2
	L168.5,158.5z M168.8,225.7c0.2-5.3,0.3-10.4,0.4-14.9c0.1-3.5,0.3-6.7,0.5-9.6c0.1-1.6,0.3-3.3,0.5-5.1l0.1-1.3v-0.2
	c0.2-1,0.4-3,0.6-5.2c0.2-1.7,0.5-5.3,0.7-6.2c0.1-0.1,0.2-0.4,0.3-0.4c2.8-1.3,11.9-5.3,15.6-6.9l1,2.3c1.1,2.5,2.2,5.1,3.2,7.6
	l0.1,0.2c0.3,0.7,0.6,1.5,0.9,2.3c1.2,2.9,2.4,5.9,3.4,8.9c1.1,3,2.1,6,2.8,9.1C190,214.3,179.8,220.9,168.8,225.7z M172.7,174.2
	c1.1-7.2,2.4-14.2,4.2-22.2c2.6,5.5,5.1,10.8,7.5,15.9c0.2,0.3,0.3,0.7,0.4,1.3c0.1,0.3,0.1,0.4,0.1,0.4s-0.1,0.1-0.2,0.1
	c-3.1,1.1-6.2,2.3-8.9,3.3l-1.2,0.5C174,173.7,173.3,173.9,172.7,174.2z M204.8,200.5c-0.5-1.9-1.2-3.6-1.8-5.3
	c-2.1-5.5-4.4-11.4-7.3-18.6l-0.5-1.1c-0.5-1.1-1.1-2.7-2-4.8c-0.4-0.8-1.1-1.2-2.1-1.5v-0.1c0.4-1.4,0.5-2.1,0.2-2.8
	c-0.6-1.5-0.6-1.5-0.9-2l-0.1-0.2c-2.4-5.1-5.7-11.8-8.7-18.5c-1.3-2.9-2.9-6.5-7.3-7.6c-0.2,0-0.4-0.2-0.6-0.3
	c-0.1-0.1-0.3-0.1-0.4-0.2c-5.4-2.6-10.9-5.2-16.4-7.9l-9-4.3l-0.7,2.1c-0.2,0.6-0.5,1.4-0.6,2l-0.3,0.7c-0.5,1.5-1,3-1.5,4.4
	c-2.3,7.1-4.9,12.8-8.3,17.5c-3.3,4.6-7.1,7.6-11.4,9.1c-2.6-1.1-5.1-2.7-7.6-5.2c-5.2-5.2-8.6-11.9-11.5-18.3c-0.9-2-1.7-4.1-2.4-6
	c-0.4-0.9-0.7-1.8-1.1-2.7l-0.8-1.9l-4.2,2.1c-1.2,0.6-2.4,1.2-3.6,1.8l-0.7,0.4c-6.1,3-12.3,6.1-18.4,9.1c-1.3,0.6-2.9,1.6-4.1,3
	c-0.8,1-1.3,2.1-1.7,3.2c-0.2,0.4-0.4,0.8-0.5,1.2c-0.8,1.7-1.6,3.3-2.4,5.1l-0.2,0.4c-1.8,3.7-3.6,7.6-5.3,11.4
	c-0.2,0.5-0.5,0.9-0.6,1.3c-0.9,1.8-2.1,4-1.6,6.7c0.1,0.4,0.1,0.5-0.5,0.7c-0.8,0.4-1.4,1.1-1.8,1.8l-0.3,0.6
	c-1.4,3.1-2.7,6.2-4,9.5c-1.8,4.6-3.7,9.5-5.5,14.5c-0.1,0.4-0.3,0.8-0.4,1.2c-19-19.8-30.7-46.6-30.7-76.2c0-60.7,49.3-110,110-110
	s110,49.3,110,110C235,154.1,223.5,180.7,204.8,200.5z"/>
</svg>
