<?xml version="1.0" encoding="utf-8"?>
<!-- Generator: Adobe Illustrator 21.0.0, SVG Export Plug-In . SVG Version: 6.00 Build 0)  -->
<svg version="1.1" id="layer_x5F_bartenders" xmlns="http://www.w3.org/2000/svg" xmlns:xlink="http://www.w3.org/1999/xlink"
	 x="0px" y="0px" viewBox="0 0 250 250" style="enable-background:new 0 0 250 250;" xml:space="preserve">
<g id="bartenders">
	<g>
		<path d="M108.1,96.6c4.6,3.6,9.6,5.9,15,6.9c1.7,0.3,3.5,0.5,5.2,0.5c2.7,0,5.3-0.4,7.9-1.1c4-1.1,7.8-3,11.1-5.4
			c5.8-4.2,10.5-9.9,13.8-16.8c3.4-6.8,4.9-12.9,4.6-18.8c-0.2-3.5-0.6-7.2-1.3-11.9c-0.7-4.6-2.5-8.8-5.2-12.7
			c-5.8-8.1-14.2-12.8-25-14.1c-9.7-1.1-18.6,0.7-26.5,5.4c-6.7,4-11.4,9.5-14,16.2C91.5,50.3,91.2,56,91,62.3
			c-0.3,4,0.9,9.6,3.1,15.2C97.2,85.2,101.9,91.7,108.1,96.6z M109.5,34.8c4.7-3.1,9.9-4.9,16-5.5c5.7-0.6,10.7,0.1,15.6,1.9
			c8.4,3.1,13.7,8.5,16.3,16.2c0.1,0.3,0.2,0.7,0.3,1l-8.7-5.9l-0.6,1.6c-1.6,4-3.5,6.9-6.2,9c-5,4.1-10.1,5.5-15.6,4.5
			c-4.8-0.9-9-2.7-12.2-5.4c-2.4-1.9-5.4-2.9-8.5-2.9c-2.8,0-5.6,0.8-7.9,2.3C99.6,44.4,103.5,38.8,109.5,34.8z M98.2,58.9
			c0.9-0.5,1.7-1,2.5-1.4c1.1-0.7,2.1-1.3,3.2-1.8c0.7-0.3,1.4-0.5,2.2-0.5c1.1,0,2.3,0.4,3.5,1.3c6.6,4.6,12.2,6.9,18.1,7.3
			c10,0.7,18-3.3,23.7-11.9c0-0.1,0.1-0.1,0.1-0.2c0,0,0.1,0,0.1,0.1c2.3,1.7,4.6,3.3,6.9,4.7c0.9,0.6,1.3,1.2,1.2,2.3
			c-0.1,0.6-0.1,1.3-0.1,2v0.8c-0.5,7.5-2.4,14.1-5.6,19.6c-3.4,5.7-8.3,10.4-14.7,13.9c-3.9,2.1-8.2,3-12.6,2.6
			c-6.3-0.6-12.1-3.4-17.2-8.3c-5.5-5.3-9.1-11.4-10.9-18.3c-0.6-2.4-0.9-5-1.1-7.5c-0.1-1-0.2-2-0.3-3
			C97.1,59.9,97.2,59.4,98.2,58.9z"/>
		<path d="M216.8,191.7c-0.7-2.7-1.6-5.3-2.5-7.7c-2.3-6.1-4.9-12.6-8.1-20.5l-0.5-1.2c-0.5-1.2-1.2-3-2.2-5.3
			c-0.4-0.9-1.2-1.3-2.3-1.7v-0.1c0.4-1.5,0.6-2.3,0.2-3.1c-0.7-1.6-0.7-1.7-1-2.2l-0.1-0.2c-2.7-5.6-6.3-13-9.6-20.4
			c-1.4-3.2-3.2-7.2-8.1-8.4c-0.2,0-0.4-0.2-0.7-0.3c-0.1-0.1-0.3-0.1-0.4-0.2c-6-2.9-12-5.8-18.1-8.7l-10-4.8l-0.8,2.3
			c-0.2,0.7-0.5,1.5-0.7,2.2l-0.3,0.8c-0.5,1.7-1.1,3.3-1.6,4.9c-2.5,7.9-5.4,14.1-9.2,19.3c-3.7,5.1-7.8,8.4-12.6,10
			c-2.9-1.2-5.6-3-8.4-5.8c-5.8-5.7-9.5-13.1-12.7-20.2c-1-2.2-1.9-4.5-2.7-6.6c-0.4-1-0.8-2-1.2-3l-0.9-2.1l-4.6,2.3
			c-1.3,0.7-2.7,1.3-4,2l-0.8,0.4c-6.7,3.3-13.6,6.7-20.3,10.1c-1.4,0.7-3.2,1.8-4.5,3.3c-0.9,1.1-1.4,2.3-1.9,3.5
			c-0.2,0.5-0.4,0.9-0.5,1.3c-0.9,1.9-1.8,3.7-2.7,5.6l-0.2,0.5c-2,4.1-4,8.4-5.9,12.6c-0.2,0.5-0.5,1-0.7,1.4c-1,2-2.3,4.4-1.8,7.4
			c0.1,0.4,0.1,0.5-0.5,0.8c-0.9,0.4-1.6,1.2-2,2l-0.3,0.7c-1.5,3.4-3,6.9-4.4,10.5c-2,5.1-4.1,10.5-6.1,16
			c-1.4,3.8-2.6,7.6-2.7,11.8c0,0.1,0.2,8.8,0.5,9.7c0.3,1,0.6,2,0.9,2.9c0.1,0.5,0.3,0.9,0.4,1.4c2.1,6.6,6.5,12.1,13.5,17.1
			c1.1,0.8,1.9,1.4,2.9,1.4c0.2,0,0.3,0,0.5-0.1c1.1-0.2,1.6-1,1.9-1.5c0.1-0.2,0.3-0.5,0.5-0.8c0.7-0.8,0.9-1.7,0.8-2.6
			c-0.1-0.9-0.7-1.7-1.6-2.3c-1.6-1.1-3-2.2-4.3-3.3c-8.1-7.6-10.7-16.5-7.7-26.7c1.5-5,3.4-10,5.3-14.8c0.6-1.6,1.3-3.2,1.9-4.8
			c1-2.6,2.1-5.2,3.1-7.4l0.4-1c0.2-0.5,0.4-1,0.7-1.5c0.1-0.3,0.4-0.6,0.6-0.7c1.8,0.7,3.6,1.4,5.4,2.1l0.5,0.2
			c1,0.4,2.1,0.8,3.1,1.2l0.3,0.1c0.9,0.3,1.7,0.7,2.6,1c2.1,0.8,4.7,1.8,7.3,2.8c0,1.4,0.2,4.8,0.5,9.2c0.1,1.2,0.2,2.6,0.2,3.1
			l0.1,1.3c0.2,5.3,0.5,11.2,0.7,17.1c0.2,7,0.3,14.1,0.5,20.5v2.2h7.7v-0.8c0-0.5,0-1.1-0.1-1.6v-0.2c0-1-0.1-2.1-0.1-3.1
			c-0.1-2.4-0.1-4.9-0.2-7.3l-0.1-3.5c-0.2-6.4-0.4-13.1-0.6-19.6c-0.2-4.3-0.5-9-0.9-14.1c-0.5-5.3-1.1-11.1-1.9-18.2v-0.4
			c-0.3-2.8-0.7-5.8-1.4-8.6c-1.5-5.8-3.1-11.6-4.7-17.2l-0.5-1.6c3.6-1.7,7.2-3.5,10.7-5.3l1.8-0.9c1.1-0.5,2.2-1.1,3.3-1.6
			c1.6-0.8,3.3-1.6,4.9-2.4l0.6-0.3c2.7,6.4,5.9,13.7,10.6,20.3c4.7,6.7,10.1,11.2,16.4,14c1.4,0.6,3.2,0.7,4.6,0.3
			c4.4-1.2,8.5-3.7,12.4-7.5c5.1-5,9.1-11.4,12.5-20.1c0.9-2.4,1.8-4.8,2.7-7.3l0.5-1.3c0.2,0.1,0.5,0.2,0.7,0.3c2.1,1,4.2,2,6.3,3
			c4.7,2.2,9.5,4.6,14.3,6.8c0.1,0,0.1,0,0.1,0.1v0.1c-1.1,4.5-2,9.1-2.9,13.5l-0.3,1.3c-0.4,2-0.8,4.1-1.2,6.6
			c-0.4,2.3-0.8,4.7-1.3,7.4c-0.5,2.9-0.9,5.8-1.3,8.6l-0.1,0.7c-0.3,1.9-0.7,5.8-1.2,9.9c-0.3,2.3-0.6,4.8-0.8,6.5
			c-0.1,0.5-0.1,0.9-0.2,1.3v0.3c0,0.1,0,0.2,0,0.2v0.1c-0.4,6.9-0.9,15.1-1.2,23.5c-0.3,6.4-0.4,12.5-0.6,17.7v0.8h7.9v-0.7
			c0.2-9,0.5-17.7,0.7-25.1c0.1-3.9,0.3-7.4,0.5-10.6c0.1-1.8,0.3-3.7,0.5-5.6l0.1-1.4v-0.2c0.2-1.1,0.4-3.3,0.7-5.8
			c0.2-1.9,0.6-5.9,0.8-6.8c0.1-0.1,0.2-0.4,0.3-0.5c3.1-1.4,13.1-5.9,17.2-7.6l1.1,2.6c1.2,2.8,2.4,5.6,3.5,8.4l0.1,0.2
			c0.3,0.8,0.7,1.7,1,2.5c1.3,3.2,2.6,6.5,3.8,9.8s2.3,6.7,3.1,10.1c1.5,6.3,0.4,12.5-3.2,18.5c-2.4,4.1-6.1,7-9.3,9.4
			c-0.7,0.5-2,2.2-1.3,3.8c0.3,0.8,0.8,1.5,1.2,2.1c0.2,0.2,0.3,0.5,0.5,0.7l1.3,2l1.9-1.5c0.7-0.6,1.5-1.2,2.2-1.8
			c1.6-1.3,3-2.4,4.5-3.8c6.9-6.4,10.4-14.6,10.5-24.4v-0.3C218,197.3,217.5,194.4,216.8,191.7z M62.3,158.2c0-0.6,0.1-1.2,0.3-1.5
			c2.9-6.2,5.8-12.4,8.7-18.5l0.4-0.9c0.4,1.4,0.9,2.8,1.2,4.2c1.1,4.3,2,8.5,2.7,12.5c0.6,3.4,1.1,6.8,1.5,10
			C71.8,162,66.9,160.1,62.3,158.2z M194.1,155.8L194.1,155.8c-3.4,1.2-6.8,2.5-9.8,3.7L183,160c-0.7,0.3-1.4,0.5-2.1,0.8
			c1.2-7.9,2.7-15.7,4.6-24.5c2.9,6.1,5.6,11.9,8.3,17.6c0.2,0.3,0.3,0.8,0.4,1.4c0.1,0.3,0.1,0.4,0.1,0.4S194.2,155.8,194.1,155.8z
			"/>
		<path d="M144.5,109.5v1.5c0.2,1.4,0.2,2.9,0.1,4.4c0,1.5-0.6,2.7-1.7,3.4c-0.6,0.4-1.2,0.6-1.9,0.6c-0.6,0-1.2-0.1-1.9-0.4
			c-0.6-0.2-1.2-0.5-1.8-0.7c-2.5-1.1-5.2-2.2-7.8-3.1c-0.7-0.2-1.6-0.3-2.2,0c-2.7,1-5.4,2.1-8,3.2c-0.6,0.3-1.2,0.5-1.8,0.8
			c-1.2,0.5-2.4,0.4-3.4-0.2c-0.9-0.6-1.5-1.6-1.6-2.8v-7.6c0-1.3,0.6-2.4,1.5-2.9c0.9-0.6,2.1-0.7,3.4-0.2l1.3,0.5
			c3,1.2,6,2.5,9.1,3.6c0.3,0.1,0.8,0.1,1.1-0.1c1.4-0.5,2.7-1.1,4.1-1.7c1.9-0.8,3.8-1.6,5.8-2.4c2.1-0.8,3.4-0.4,4.1,0.1
			C143.6,106,144.5,107.1,144.5,109.5z"/>
	</g>
</g>
</svg>
