<?xml version="1.0" encoding="utf-8"?>
<!-- Generator: Adobe Illustrator 21.0.0, SVG Export Plug-In . SVG Version: 6.00 Build 0)  -->
<svg version="1.1" id="clock" xmlns="http://www.w3.org/2000/svg" xmlns:xlink="http://www.w3.org/1999/xlink" x="0px" y="0px"
	 viewBox="0 0 43.5 29" style="enable-background:new 0 0 43.5 29;" xml:space="preserve">
<style type="text/css">
	.st0{fill:#E9E9E9;}
	.st1{fill:#E9E9E9;stroke:#504F50;stroke-width:4.0768;stroke-linecap:round;stroke-miterlimit:10;}
</style>
<g id="beers">
	<path class="st0" d="M16.1,8.2c-0.1,0-0.1,0-0.2,0H16.1C16.1,8.2,16.1,8.2,16.1,8.2z"/>
	<path class="st0" d="M27.3,7.9c-0.1,0-0.2,0-0.3,0.1c0,0-0.1,0.1-0.1,0.2l0,0.5v0c0,0,0,0,0,0c-0.3,0.7-0.9,1.1-1.6,1.1
		c-0.9,0-1.7-0.7-1.7-1.6V8.1c0,0,0,0,0,0h-7.7l1.8,16.4h8.4l1.5-15.5l0.1-0.6C27.6,8.1,27.5,7.9,27.3,7.9z M19.1,20.8
		c0,0.2-0.1,0.3-0.3,0.3c-0.2,0-0.3-0.1-0.3-0.3c0-0.2,0.1-0.3,0.3-0.3C19,20.5,19.1,20.6,19.1,20.8z M16,8.2L16,8.2
		C16,8.2,16,8.2,16,8.2l0.1,0v0c0,0,0,0,0,0C16.1,8.2,16.1,8.2,16,8.2z M17.2,9.3c0-0.2,0.1-0.3,0.3-0.3c0.2,0,0.3,0.1,0.3,0.3
		L19,19.6c0,0.2-0.1,0.3-0.3,0.3h0c-0.2,0-0.3-0.1-0.3-0.3L17.2,9.3z M25.5,23.8h-7.3L18,22.3h7.5c0,0,0.1,0,0.1,0L25.5,23.8z"/>
	<path class="st0" d="M16,6.6c0,0.2,0.1,0.3,0.3,0.3c0.2,0,0.3-0.1,0.3-0.3c0-1.2,1.1-2.1,2.4-1.9l0.2,0l0.1-0.2
		c0.4-0.8,1.2-1.4,2.2-1.4c1,0,1.9,0.6,2.2,1.5L23.9,5l0.3-0.1c0.3-0.1,0.5-0.2,0.8-0.2c1.1,0,2,0.9,2,1.9c0,0.2,0.1,0.3,0.3,0.3
		c0.2,0,0.3-0.1,0.3-0.3c0-1.4-1.2-2.5-2.6-2.5c-0.3,0-0.5,0-0.8,0.1c-0.5-1-1.5-1.6-2.7-1.6c-1.1,0-2.1,0.6-2.6,1.5
		c-0.1,0-0.2,0-0.3,0C17.2,4.2,16,5.3,16,6.6z"/>
	<path class="st0" d="M18.6,5.7c0.4-0.1,0.7,0,1.1,0.1L20,6l0.1-0.3c0.1-0.4,0.4-1,0.5-1.1c0.2-0.2,0.5-0.3,0.7-0.3
		c0.1,0,0.3-0.1,0.3-0.2c0-0.1-0.1-0.2-0.3-0.2c-0.4,0-0.8,0.1-1.1,0.4c-0.2,0.2-0.5,0.7-0.6,1.1c-0.3-0.1-0.7-0.2-1.2-0.1
		c-0.4,0.1-0.9,0.4-1.1,1c0,0.1,0,0.3,0.2,0.3c0,0,0.1,0,0.1,0c0.1,0,0.2-0.1,0.2-0.2C18,6,18.4,5.8,18.6,5.7z"/>
	<path class="st0" d="M16.1,8.2c-0.1,0-0.1,0-0.2,0H16.1C16.1,8.2,16.1,8.2,16.1,8.2z"/>
	<path class="st1" d="M23.9,8.2"/>
	<path class="st1" d="M27.4,8.1"/>
	<path class="st0" d="M25.3,9C25.2,9,25,8.9,25,8.8c0-0.2,0.1-0.3,0.3-0.3c0.2,0,0.4-0.1,0.6-0.3C26,8,26.1,7.8,26.1,7.5
		c0-0.2,0.1-0.3,0.3-0.3l0,0c0.2,0,0.3,0.1,0.3,0.3c0,0.4-0.1,0.7-0.4,1C26.1,8.8,25.7,9,25.3,9C25.3,9,25.3,9,25.3,9z"/>
</g>
</svg>
