<?xml version="1.0" encoding="utf-8"?>
<!-- Generator: Adobe Illustrator 21.0.0, SVG Export Plug-In . SVG Version: 6.00 Build 0)  -->
<svg version="1.1" id="layer_x5F_beers" xmlns="http://www.w3.org/2000/svg" xmlns:xlink="http://www.w3.org/1999/xlink" x="0px"
	 y="0px" viewBox="0 0 250 250" style="enable-background:new 0 0 250 250;" xml:space="preserve">
<style type="text/css">
	.st0{fill:#E9E9E9;}
	.st1{fill:#E9E9E9;stroke:#504F50;stroke-width:4.0768;stroke-linecap:round;stroke-miterlimit:10;}
</style>
<g id="beers">
	<path class="st0" d="M76.3,75.3c-0.5,0-1,0-1.5,0l1.4-0.3C76.2,75,76.3,75.1,76.3,75.3z"/>
	<path class="st0" d="M182.4,72.6c-1-0.1-2,0.3-2.6,1.1c-0.3,0.4-0.5,0.9-0.6,1.5l-0.4,4.7V80c0,0.1,0,0.2-0.1,0.3
		c-2.4,6.3-8.5,10.6-15.3,10.6c-8.7,0-15.9-6.8-16.3-15.5v-1.2c0-0.1,0-0.3-0.1-0.4H73.8l16.9,154.9h79.5l14.2-147l0.6-5.9
		C185.1,74.2,183.9,72.8,182.4,72.6z M104.3,194.8c0,1.7-1.4,3.1-3.1,3.1s-3.1-1.4-3.1-3.1s1.4-3.1,3.1-3.1
		C102.9,191.8,104.3,193.1,104.3,194.8z M75.2,75.2L75.2,75.2c-0.2,0-0.3,0-0.4,0l1.4-0.3c0,0,0,0.1,0,0.1c0,0.1,0,0.2,0.1,0.3
		C76,75.2,75.6,75.2,75.2,75.2z M86.5,85.6c-0.2-1.6,1-3,2.6-3.2c1.6-0.2,3.1,1,3.3,2.6l10.8,97.8c0.2,1.6-1,3.1-2.6,3.3h-0.3
		c-1.5,0-2.8-1.1-2.9-2.6L86.5,85.6z M164.9,222.9H95.8l-1.6-14.5h71.3c0.2,0,0.5,0,0.7-0.1L164.9,222.9z"/>
	<path class="st0" d="M75.4,60.4c0,1.5,1.2,2.6,2.8,2.6c1.5,0,2.8-1.2,2.8-2.6c0-11.1,10.7-19.9,22.6-17.7l2.3,0.4l0.9-2
		c3.4-8,11.5-13.2,20.6-13.2c9.6,0,18,5.8,21.1,14.4l1,2.8l2.8-1.2c2.4-1,5-1.5,7.7-1.5c10.5,0,19,8.1,19,18c0,1.5,1.2,2.6,2.8,2.6
		c1.5,0,2.8-1.2,2.8-2.6c0-12.8-11-23.3-24.6-23.3c-2.5,0-4.9,0.3-7.2,1c-4.5-9.3-14.3-15.5-25.3-15.5c-10.6,0-20.2,5.6-24.8,14.6
		c-0.8-0.1-1.7-0.1-2.5-0.1C86.4,37.1,75.4,47.5,75.4,60.4z"/>
	<path class="st0" d="M99.9,52c3.7-0.9,6.8-0.2,10.6,1.2l2.8,1.1l0.5-2.8c0.7-3.9,3.4-9.4,5-10.7c2.1-1.8,4.4-2.7,6.8-2.7
		c1.4,0,2.5-1,2.5-2.3s-1.1-2.3-2.5-2.3c-3.7,0-7.2,1.4-10.2,4c-2.2,1.9-4.6,6.7-5.8,10.7c-3.3-1-6.8-1.5-11-0.5
		c-3.6,0.9-8.5,3.8-10.4,9.1c-0.4,1.2,0.3,2.5,1.6,2.9c0.3,0.1,0.5,0.1,0.8,0.1c1,0,2-0.6,2.3-1.6C94.3,54.3,98,52.5,99.9,52z"/>
	<path class="st0" d="M76.3,75.3c-0.5,0-1,0-1.5,0l1.4-0.3C76.2,75,76.3,75.1,76.3,75.3z"/>
	<path class="st1" d="M150.1,75.6"/>
	<path class="st1" d="M183,74.7"/>
	<path class="st0" d="M163.3,83.2c-1.5,0-2.8-1.2-2.9-2.7c-0.1-1.6,1.1-3.1,2.7-3.2c2-0.2,4-1.1,5.4-2.6s2.2-3.5,2.2-5.6
		c0-1.6,1.3-2.9,2.9-2.9l0,0c1.6,0,2.9,1.4,2.9,3c-0.1,3.5-1.4,7-3.8,9.5c-2.4,2.6-5.7,4.2-9.2,4.5
		C163.4,83.2,163.4,83.2,163.3,83.2z"/>
</g>
</svg>
