<?xml version="1.0" encoding="utf-8"?>
<!-- Generator: Adobe Illustrator 21.0.0, SVG Export Plug-In . SVG Version: 6.00 Build 0)  -->
<svg version="1.1" id="clock" xmlns="http://www.w3.org/2000/svg" xmlns:xlink="http://www.w3.org/1999/xlink" x="0px" y="0px"
	 viewBox="0 0 43.5 29" style="enable-background:new 0 0 43.5 29;" xml:space="preserve">
<style type="text/css">
	.st0{fill:#E9E9E9;}
</style>
<g id="clock_1_">
	<g>
		<path class="st0" d="M20.9,5.2c0.5,0,1.1,0,1.6,0c0.1,0,0.2,0.1,0.3,0.1c4,0.5,7.3,3.4,8.3,7.4c0.1,0.4,0.2,0.8,0.3,1.2
			c0,0.6,0,1.1,0,1.7c0,0.1-0.1,0.2-0.1,0.3c-0.5,4-3.4,7.3-7.4,8.2c-0.4,0.1-0.9,0.2-1.3,0.3c-0.5,0-1.1,0-1.6,0
			c-0.1,0-0.2-0.1-0.3-0.1c-4-0.5-7.3-3.4-8.3-7.4c-0.1-0.4-0.2-0.9-0.3-1.3c0-0.6,0-1.1,0-1.7c0-0.1,0.1-0.1,0.1-0.2
			c0.5-4.2,3.4-7.4,7.5-8.3C20.1,5.3,20.5,5.3,20.9,5.2z M30.2,14.8c0-4.6-3.8-8.4-8.4-8.4s-8.4,3.8-8.4,8.4s3.8,8.4,8.4,8.4
			S30.2,19.5,30.2,14.8z"/>
		<path class="st0" d="M26,18c-0.3,0.3-0.5,0.6-0.8,0.9c-1.3-1.1-2.6-2.2-3.9-3.3c-0.1-0.1-0.2-0.3-0.2-0.4c0-2.1,0-4.2,0-6.2V8.9
			c0.4,0,0.7,0,1.1,0c0,0.2,0,0.3,0,0.5c0,1.7,0,3.4,0,5.1c0,0.3,0.1,0.5,0.3,0.7c1,0.8,2,1.7,3,2.6C25.8,17.7,25.9,17.8,26,18z"/>
	</g>
</g>
</svg>
