<?xml version="1.0" encoding="utf-8"?>
<!-- Generator: Adobe Illustrator 21.0.0, SVG Export Plug-In . SVG Version: 6.00 Build 0)  -->
<svg version="1.1" id="Capa_1" xmlns="http://www.w3.org/2000/svg" xmlns:xlink="http://www.w3.org/1999/xlink" x="0px" y="0px"
	 viewBox="0 0 250 250" style="enable-background:new 0 0 250 250;" xml:space="preserve">
<style type="text/css">
	.st0{fill:#E9E9E9;}
</style>
<g>
	<path class="st0" d="M13,125.3l19.5-3.6l7.2,39.3c3.3-5.6,9.4-9.1,15.7-10.3c16.3-3,30,8.4,32.9,24.2s-5.9,31.4-22.3,34.4
		c-6.4,1.2-13.5-0.1-18.1-4.9h-0.2l1.1,6.1l-19.5,3.6L13,125.3z M43.2,183.3c1.3,7,6.9,11.5,14.8,10s11.5-7.7,10.3-14.6
		c-1.2-6.7-6.9-11.6-14.8-10.1C45.5,170,41.9,176.5,43.2,183.3z"/>
	<path class="st0" d="M163.1,189.5l-19.5,3.6l-1.1-6.1h-0.2c-2.4,6.1-8.7,9.8-15.1,11c-16.3,3-30.2-8.5-33.1-24.2
		c-2.9-15.7,5.9-31.3,22.1-34.3c6.3-1.2,13.4,0,18.3,4l-1-5.4l19.5-3.6L163.1,189.5z M114.2,170.2c1.3,7,6.9,11.5,14.8,10
		s11.5-7.7,10.3-14.6c-1.2-6.7-6.9-11.6-14.8-10.1C116.5,156.9,112.9,163.4,114.2,170.2z"/>
	<path class="st0" d="M187.1,137.6h0.2c2.5-7.4,8.4-11.6,16-13l3.7-0.7l3.5,18.7c-3-1-5.6-0.9-8.6-0.3c-10.8,2-12.2,9.7-10.4,19.1
		l4.1,22.2l-19.5,3.6L166,132.3l19.5-3.6L187.1,137.6z"/>
	<path class="st0" d="M237.3,165.1c1.3,6.9-3.3,13.5-10.2,14.8c-7,1.3-13.6-3.4-14.8-10.2c-1.3-7,3.3-13.5,10.2-14.8
		S236,158.2,237.3,165.1z"/>
</g>
<g>
	<path class="st0" d="M78.5,126.4L59,130l-7.2-38.9L45,92.4l-3-16.1l6.9-1.3l-1.3-7c-1.4-7.6-2.2-13.2,2-20.3
		c3.8-6.6,10.2-10.9,17.5-12.3c3-0.6,5.8-0.5,8.7,0.4L79,52.7c-2.4-0.5-4.6-1-7.2-0.6c-5,0.9-6.2,4.2-5,10.4l1.6,8.9L82,69l3,16.1
		l-13.6,2.5L78.5,126.4z"/>
	<path class="st0" d="M155.6,83.9c3.4,18.6-10,32.1-27.7,35.3c-17.6,3.2-35-4.4-38.5-23.1s10-32.2,27.7-35.4
		C134.8,57.4,152.2,65.1,155.6,83.9z M110,92.3c1.3,7,6.9,11.5,14.8,10s11.5-7.7,10.3-14.6c-1.2-6.7-6.9-11.6-14.8-10.1
		C112.4,79,108.8,85.5,110,92.3z"/>
	<path class="st0" d="M226.5,70.8c3.4,18.6-10,32.1-27.7,35.3c-17.6,3.2-35-4.4-38.5-23.1s10-32.2,27.7-35.4
		C205.7,44.3,223.1,52.1,226.5,70.8z M180.9,79.2c1.3,7,6.9,11.5,14.8,10c7.9-1.5,11.5-7.7,10.3-14.6c-1.2-6.7-6.9-11.6-14.8-10.1
		C183.2,65.9,179.7,72.5,180.9,79.2z"/>
</g>
</svg>
