<?xml version="1.0" encoding="utf-8"?>
<!-- Generator: Adobe Illustrator 21.0.0, SVG Export Plug-In . SVG Version: 6.00 Build 0)  -->
<svg version="1.1" id="layer_x5F_orders" xmlns="http://www.w3.org/2000/svg" xmlns:xlink="http://www.w3.org/1999/xlink" x="0px"
	 y="0px" viewBox="0 0 250 250" style="enable-background:new 0 0 250 250;" xml:space="preserve">
<style type="text/css">
	.st0{fill:#E9E9E9;}
</style>
<g id="orders">
	<path class="st0" d="M127.5,111.3c7.2,2.3,14.4,4.6,21.6,6.9l8.6,2.8l2.1,0.7c1.5,0.5,3.1,1,4.6,1.5c2.4,0.7,4.1,3.1,3.9,5.6
		c-0.2,2.7-2.2,4.7-4.8,5.2c-0.1,0-0.3,0-0.6,0.1h-0.5c-0.1,0-0.1,0-0.2,0c-0.6-0.1-1.1-0.2-1.5-0.3c-10.5-3.4-21-6.9-31.5-10.3
		l-4.5-1.5c-1.9-0.6-3.3-2-3.9-3.8c-0.5-1.7-0.2-3.5,0.8-4.9c1-1.5,2.6-2.3,4.3-2.3C126.4,111,127,111.1,127.5,111.3z"/>
	<path class="st0" d="M106.6,104.2c2.3,0.9,3.8,3.3,3.5,6.1c-0.2,2.3-2.4,4.4-4.8,4.8c-0.2,0-0.5,0.1-0.7,0.1
		c-0.6,0-1.1-0.1-1.8-0.3c-0.4-0.1-0.8-0.2-1.2-0.3c-0.5-0.1-1-0.2-1.4-0.4c-2.3-0.8-3.8-2.8-3.8-5.3c0-1.5,0.6-2.9,1.6-3.9
		c1-1.1,2.4-1.7,3.8-1.7c0.5,0,1,0.1,1.5,0.2c0.6,0.2,1.2,0.3,1.8,0.4C105.6,104,106.1,104.1,106.6,104.2z"/>
	<path class="st0" d="M229,54.7l-0.8,2.6c-0.8,2.7-1.7,5.4-2.6,8.1l-4,12.1c-4.4,13.4-9,27.2-13.6,40.7
		c-6.4,18.9-13.3,38.3-20.6,57.5c-2.6,6.9-5.8,15-9.5,22.7c-3.6,7.6-7.2,13.4-11.2,18.3c-5,6.2-10.9,10.5-18.1,13.1
		c-4.7,1.7-9.6,2.2-14.8,2.8l-1.3,0.1c-0.4,0-0.8,0.1-1.3,0.1c-1.6,0-3.3-0.3-5-0.6l-0.5-0.1c-2.7-0.4-5.1-1.1-7.3-1.9
		c-3.5-1.3-6.9-2.7-10.1-4.2c-9.4-4.2-18.9-8.5-28.1-12.7l-9.5-4.3c-2.7-1.2-5.3-2.4-8-3.6c-6.4-2.9-13-5.9-19.6-8.8
		c-3-1.3-6.1-2.7-8.7-4.7c-8.3-6.1-13-14.3-14.3-24.9c-0.1-1-0.2-1.9-0.3-2.9c0-0.4-0.1-0.8-0.1-1.3v-3.2c0-0.5,0.1-0.9,0.1-1.4
		c0.1-1.1,0.1-2.1,0.3-3.1c0.3-1.8,0.6-3.6,0.9-5.4l1.9,0.8l42.9,17.3l8.2,3.3c12.3,5,24.7,10,37,14.9c-0.2,5.8,0.4,11.3,1.8,16.4
		c1.3,4.6,3.2,8.2,5.8,11.2c3.6,4.1,8.2,6.5,13.7,7c1.2,0.1,2.3,0.2,3.4,0.2c4.3,0,8.3-0.9,12-2.6s7-4.5,10.2-8.4
		c4-5,7-10.6,9.3-15.5c4.8-9.9,8.7-20.1,12.9-31.5c8.2-22,16.2-44.9,24.5-70.1c2.4-7.4,4.9-15,7.2-22.3c1-3.3,2.1-6.5,3.2-9.8
		c0.1-0.2,0.1-0.4,0.2-0.6l0.1-0.3l0.8-2.8l-2.8-0.6l-1.2-0.3c-0.9-0.2-1.7-0.4-2.6-0.5l-4.7-0.9c-7.8-1.6-15.6-3.1-23.3-4.7
		c-5.4-1.1-10.7-2.2-16.1-3.2c-5.7-1.1-11.4-2.3-17.1-3.4c-5.7-1.1-11.4-2.3-17.2-3.4l-8.5-1.7l-3.8-0.8c-3.8-0.8-7.6-1.5-11.4-2.3
		c-0.3-0.1-0.5-0.1-0.8-0.1c-0.8,0-2.4,0.3-3.1,2.4C100,47,96.5,56.6,93,66.2L82.6,94.3l-13.2,36.1c-0.7,1.8-1.3,3.7-2,5.6
		c-0.6,1.6-1.2,3.3-1.8,4.9c-0.8,2.3-2.9,3.8-5.3,3.8c-0.4,0-0.8-0.1-1.3-0.1c-2.7-0.6-4.6-3.2-4.3-6c0-0.5,0.1-0.9,0.3-1.3
		c6.3-17.1,12.5-34.2,18.7-51.3L79,71.4L86.1,52c3-8.3,6.1-16.7,9.1-25c0.8-2.2,2.3-3.5,4.6-4c0.1,0,0.3-0.1,0.4-0.1h0.7
		c0.2,0.1,0.5,0.1,0.8,0.2c3.9,0.8,7.8,1.5,11.7,2.3c4.1,0.8,8.1,1.6,12.2,2.4c4.7,0.9,9.4,1.9,14.1,2.8c4.6,0.9,9.2,1.8,13.8,2.8
		c7.2,1.4,14.5,2.9,21.7,4.3l15.4,3.1l11.5,2.3c7.4,1.5,14.8,2.9,22.2,4.4c1.8,0.3,3.2,1.3,4,2.7C229.4,51.4,229.5,53.1,229,54.7z"
		/>
	<path class="st0" d="M96.8,141c0,3.5-2.5,6.1-5.6,6.1c-0.6,0-1.1-0.1-1.7-0.2c-0.5-0.1-1-0.2-1.4-0.3c-0.5-0.1-0.9-0.2-1.3-0.3
		c-2.4-0.8-4-3.1-3.8-5.8c0.1-2.4,2.1-4.5,4.4-5.1c0.3-0.1,0.5-0.1,0.8-0.1c0.7,0,1.4,0.1,2.1,0.3c0.3,0.1,0.6,0.1,0.9,0.2
		c1.2,0.2,2.2,0.4,3,1C95.8,137.9,96.7,139.4,96.8,141z"/>
	<path class="st0" d="M150.5,156.4c2.4,1,4,3.2,4,5.7s-1.7,4.6-4.1,5.3c-0.5,0.1-1,0.2-1.5,0.2c-0.7,0-1.4-0.1-2.2-0.4
		c-5.3-1.7-10.6-3.5-15.8-5.3c-4.6-1.5-9.2-3-13.8-4.6c-0.6-0.2-1.2-0.4-1.8-0.6c-1.8-0.6-3.4-1.1-5.1-1.8c-2.1-0.8-3.5-3.2-3.3-5.4
		c0.3-2.7,2.1-4.7,4.5-5.2h0.9c0.1,0,0.1,0,0.2,0c0.4,0.1,0.9,0.1,1.2,0.2C126.6,148.7,138.7,152.6,150.5,156.4z"/>
	<path class="st0" d="M122.1,75.2c-0.3,2.7-2.2,4.8-4.9,5.2h-0.6c-0.7-0.1-1.3-0.2-2-0.3c-1.5-0.2-2.9-0.3-3.9-1
		c-2.2-1.4-3.3-4-2.6-6.4c0.7-2.5,3-4.1,5.6-4.1c0,0,3.3,0.3,4.7,0.8C120.8,70.4,122.3,72.8,122.1,75.2z"/>
	<path class="st0" d="M135.1,83c-0.3-1.5,0.1-3.1,1.2-4.4c1.1-1.3,2.6-2.1,4.1-2.1h0.5c0.7,0.1,1.5,0.3,2.4,0.6
		c0.4,0.1,0.8,0.2,1.2,0.3l14.6,4c6.6,1.8,13.2,3.6,19.7,5.3c2.6,0.9,4.3,3.3,4.2,6.1c-0.1,2.5-2.3,4.8-5,5.2h-1
		c-0.2-0.1-0.5-0.1-0.7-0.2c-1.2-0.3-2.4-0.6-3.5-0.9c-5.6-1.5-11.1-3.1-16.7-4.6c-5.5-1.5-10.9-3.1-16.4-4.6
		C137,87,135.6,85.5,135.1,83z"/>
</g>
</svg>
