<?xml version="1.0" encoding="utf-8"?>
<!-- Generator: Adobe Illustrator 21.0.0, SVG Export Plug-In . SVG Version: 6.00 Build 0)  -->
<svg version="1.1" id="pplqueue" xmlns="http://www.w3.org/2000/svg" xmlns:xlink="http://www.w3.org/1999/xlink" x="0px" y="0px"
	 viewBox="0 0 43.5 29" style="enable-background:new 0 0 43.5 29;" xml:space="preserve">
<style type="text/css">
	.st0{fill:#595959;}
</style>
<path class="st0" d="M32.3,20.1v3.4c0,0.1-0.1,0.3-0.1,0.4H19.8c0-0.1-0.1-0.2-0.1-0.4v-3.5c0.8-2.8,3.3-4.8,6.3-4.8
	S31.5,17.3,32.3,20.1C32.3,20.1,32.3,20.1,32.3,20.1z"/>
<circle class="st0" cx="26" cy="10.8" r="3.4"/>
<path d="M23.5,19.7v3.9c0,0.2-0.1,0.3-0.1,0.5H9.3c0-0.1-0.1-0.3-0.1-0.4v-4c0.9-3.1,3.8-5.5,7.2-5.5S22.7,16.5,23.5,19.7
	C23.5,19.6,23.5,19.7,23.5,19.7z"/>
<circle cx="16.4" cy="9.1" r="3.8"/>
</svg>
