<?xml version="1.0" encoding="utf-8"?>
<!-- Generator: Adobe Illustrator 21.0.0, SVG Export Plug-In . SVG Version: 6.00 Build 0)  -->
<svg version="1.1" id="layer_x5F_storage" xmlns="http://www.w3.org/2000/svg" xmlns:xlink="http://www.w3.org/1999/xlink" x="0px"
	 y="0px" viewBox="0 0 250 250" style="enable-background:new 0 0 250 250;" xml:space="preserve">
<style type="text/css">
	.st0{fill:#E9E9E9;}
	.st1{fill:#C6C6C6;}
</style>
<g id="front">
	<g>
		<path class="st0" d="M62.5,154.6v-0.9C62.4,154,62.4,154.3,62.5,154.6z M62.5,154.6v-0.9C62.4,154,62.4,154.3,62.5,154.6z
			 M62.5,154.6v-0.9C62.4,154,62.4,154.3,62.5,154.6z M62.5,154.6v-0.9C62.4,154,62.4,154.3,62.5,154.6z M62.5,154.6v-0.9
			C62.4,154,62.4,154.3,62.5,154.6z M62.5,154.6v-0.9C62.4,154,62.4,154.3,62.5,154.6z M54.7,101.8v3.5c0.1-0.2,0.2-0.5,0.3-0.7
			C55.2,103.6,55.1,102.7,54.7,101.8z M54.7,199.3C54.7,199.2,54.7,199.2,54.7,199.3l-0.1,3.3C55.2,201.5,55.3,200.4,54.7,199.3z
			 M54.7,152.5C54.7,152.5,54.7,152.5,54.7,152.5l0,3.4C55.3,154.8,55.3,153.7,54.7,152.5z M62.5,154.6v-0.9
			C62.4,154,62.4,154.3,62.5,154.6z M62.5,154.6v-0.9C62.4,154,62.4,154.3,62.5,154.6z M62.5,154.6v-0.9
			C62.4,154,62.4,154.3,62.5,154.6z M62.5,154.6v-0.9C62.4,154,62.4,154.3,62.5,154.6z M62.5,154.6v-0.9
			C62.4,154,62.4,154.3,62.5,154.6z"/>
		<path class="st0" d="M159.5,203.4c-0.6-1.6-1.5-2.9-2.8-4c-0.4-0.3-0.5-0.7-0.5-1.2c0-11.9,0-23.8,0-35.7c0-1.1-0.2-2.1-0.7-3.1
			c-0.8-1.6-1.6-3.2-2.4-4.9c-0.2-0.3-0.2-0.6,0-1c0.9-1.7,1.8-3.4,2.6-5.2c0.3-0.7,0.6-1.5,0.6-2.3c0-11.5,0-23.1,0-34.6
			c0-0.8-0.2-1.6-0.6-2.3c-0.8-1.8-1.7-3.5-2.6-5.2c-0.1-0.2-0.1-0.6,0-0.9c0.8-1.8,1.8-3.5,2.6-5.3c0.3-0.7,0.5-1.5,0.5-2.2
			c0-1.3,0-2.5,0-3.8c0-2.6,0-5.2,0-7.8c0-10.3,0-20.6,0-30.9c0-2.5-1.6-4-4.1-4.1h-0.4c-41.3,0-82.6,0-123.9,0
			c-2,0-3.9,1.7-3.9,3.9c0,14.3,0,28.5,0,42.8c0,0.6,0.2,1.3,0.5,1.9c0.8,1.8,1.7,3.6,2.6,5.3c0.2,0.4,0.2,0.8,0,1.2
			c-0.9,1.7-1.8,3.4-2.6,5.1c-0.3,0.7-0.5,1.5-0.5,2.3c0,11.5,0,23,0,34.6c0,0.8,0.2,1.6,0.5,2.3c0.8,1.8,1.7,3.5,2.6,5.3
			c0.2,0.3,0.2,0.6,0,1c-0.9,1.7-1.7,3.5-2.6,5.2c-0.4,0.8-0.6,1.6-0.6,2.4c0,12,0,24.1,0,36.1c0,0.5-0.1,0.7-0.5,1
			c-1.9,1.6-3,3.6-3.3,6.1c0,0.1-0.1,0.2-0.1,0.3v1.6c0.2,0.9,0.4,1.9,0.8,2.8c1.7,3.8,4.6,5.9,8.8,6.2c0.2,0,0.4,0,0.6,0h120
			c0.5,0,1.1,0,1.6-0.1c3.5-0.5,6.4-2.7,7.8-6.1c0.3-0.7,0.5-1.5,0.7-2.3c0,0,0-0.1,0-0.1v-2.3C159.9,204.8,159.7,204.1,159.5,203.4
			z M30.4,208.6c-0.4,0-0.8,0-1.2-0.1c-0.9-0.3-1.4-1.1-1.3-2.2c0.1-0.9,0.8-1.6,1.8-1.6c0.2,0,0.4,0,0.6,0c6.8,0,13.6,0,20.5,0
			c1.4,0,2.7-0.4,3.6-1.5c0.2-0.2,0.3-0.4,0.4-0.7v-3.4c-0.6-1.4-1.8-2-3.3-2.2c-0.3,0-0.5,0-0.8,0H31.7v-0.7c0-10.9,0-21.8,0-32.7
			c0-0.4,0.1-0.8,0.3-1.2c0.6-1.2,1.2-2.4,1.8-3.7c0.2-0.5,0.5-0.6,1-0.6c5.3,0,10.7,0,16.1,0c1.4,0,2.6-0.4,3.4-1.6
			c0.2-0.2,0.3-0.4,0.4-0.6v-3.5c-0.7-1.4-1.9-2.2-3.5-2.2c-2.7,0-5.4,0-8.1,0c-2.8,0-5.6,0-8.5,0c-0.4,0-0.6-0.1-0.8-0.5
			c-0.6-1.3-1.3-2.6-2-3.9c-0.1-0.3-0.2-0.6-0.2-0.9c0-10.7,0-21.4,0-32c0-0.3,0.1-0.7,0.2-1c0.6-1.3,1.3-2.6,1.9-3.9
			c0.2-0.4,0.4-0.5,0.8-0.5c5.4,0,10.9,0,16.3,0c1.7,0,3-0.8,3.7-2.2v-3.5c-0.6-1.1-1.6-1.9-3-2.1c-0.4,0-0.8-0.1-1.2-0.1
			c-5.3,0-10.5,0-15.8,0c-0.5,0-0.7-0.1-0.9-0.6c-0.7-1.4-1.7-2.8-2-4.3c-0.4-1.5-0.1-3.2-0.1-4.8V56.9h116.8v0.7
			c0,8.8,0,17.6,0,26.5c0,2.6,0,5.2,0,7.8v2.4c0,0.3-0.1,0.7-0.2,1c-0.6,1.3-1.3,2.5-1.9,3.8c-0.2,0.4-0.5,0.6-0.9,0.6
			c-8.2,0-16.4,0-24.5,0h-7.8c-13,0-25.9,0-38.9,0h-7.2c-0.2,0-0.4,0-0.6,0c-1.4,0.1-2.5,0.7-3.2,2c-1.4,2.5,0.4,5.6,3.2,5.7
			c0.2,0,0.4,0,0.7,0h7.1c13,0,25.9,0,38.9,0c2.6,0,5.2,0,7.8,0c8.1,0,16.3,0,24.4,0c0.5,0,0.8,0.1,1.1,0.7c0.7,1.4,1.7,2.8,2,4.3
			c0.3,1.5,0.1,3.1,0.1,4.7c0,9.2,0,18.4,0,27.5c0,0.5-0.1,1-0.3,1.4c-0.6,1.2-1.2,2.4-1.8,3.7c-0.2,0.4-0.4,0.5-0.9,0.5
			c-8.1,0-16.3,0-24.4,0H66.4c-1.7,0-3.2,1.1-3.7,2.7c-0.1,0.2-0.1,0.5-0.2,0.8v0.9c0.1,1,0.7,2,1.5,2.7c0.7,0.5,1.5,0.8,2.3,0.8
			h7.8c13,0,25.9,0,38.9,0h7.8c8.2,0,16.4,0,24.6,0c0.4,0,0.6,0.1,0.8,0.5c0.7,1.4,1.3,2.7,2,4.1c0.1,0.2,0.2,0.5,0.2,0.8
			c0,11.1,0,22.1,0,33.2v0.4h-35.4c-13,0-25.9,0-38.9,0h-7c-0.3,0-0.5,0-0.8,0c-1.3,0.2-2.4,0.8-3.1,2.1c-1.3,2.4,0.3,5.3,3,5.6
			c0,0,0.1,0,0.1,0c0.4,0,0.7,0,1.1,0h82.4c0.2,0,0.5,0,0.7,0c1.1,0.1,1.8,0.9,1.8,2c0,0.9-0.6,1.7-1.5,1.8c-0.1,0-0.2,0-0.3,0
			c-0.2,0-0.5,0-0.7,0H30.4z"/>
		<path class="st0" d="M78.4,45.2c0-1.3,0-2.5,0-3.8c-1.2,0-2.2-0.2-3-0.9c-1.3-1.1-1.7-2.7-1.2-4.3c0.6-1.6,2-2.6,3.6-2.6
			c7.9,0,15.7,0,23.6,0c2.2,0,3.7,1.1,4.2,2.9c0.6,2.4-1.1,4.6-3.5,4.8c-0.1,0-0.2,0-0.3,0c0,1.3,0,2.5,0,3.8c-2.6,0-5.2,0-7.8,0
			c0-1.2,0-2.5,0-3.8c-2.6,0-5.1,0-7.8,0c0,1.2,0,2.5,0,3.8C83.6,45.2,81,45.2,78.4,45.2z"/>
		<path class="st0" d="M90,64.7c4.7,0,9.4,0,14,0c2.8,0,5.2,2.5,5.4,5.2c0.3,3.1-1.9,5.8-4.7,6.3c-0.4,0.1-0.7,0.1-1.1,0.1
			c-9.1,0-18.2,0-27.3,0c-2.4,0-4.6-1.5-5.4-3.8c-0.8-2.3-0.3-4.7,1.5-6.4c1-0.9,2.2-1.5,3.6-1.5C80.8,64.7,85.4,64.7,90,64.7z"/>
	</g>
</g>
<g id="back">
	<g>
		<path class="st1" d="M218.1,84c-14.3,0-28.5,0-42.8,0c-0.6,0-1.3,0.2-1.9,0.5c-1.8,0.8-3.6,1.7-5.3,2.6c-0.4,0.2-0.8,0.2-1.2,0
			c-1.7-0.9-3.4-1.8-5.1-2.6c-0.7-0.3-1.5-0.5-2.3-0.5c-1.1,0-2.2,0-3.3,0c0,2.6,0,5.2,0,7.8h2.1c0.3,0,0.7,0.1,1,0.2
			c1.3,0.6,2.6,1.3,3.9,1.9c0.4,0.2,0.5,0.4,0.5,0.8c0,5.4,0,10.9,0,16.3c0,2,1.1,3.5,2.9,4c2.3,0.6,4.6-0.9,4.9-3.3
			c0-0.4,0.1-0.8,0.1-1.2c0-5.3,0-10.5,0-15.8c0-0.5,0.1-0.7,0.6-0.9c1.4-0.7,2.8-1.7,4.3-2c1.5-0.4,3.2-0.1,4.8-0.1h33.2v116.7
			h-0.7c-12.2,0-24.4,0-36.6,0c-0.3,0-0.7-0.1-1-0.2c-1.3-0.6-2.5-1.3-3.8-1.9c-0.4-0.2-0.6-0.5-0.6-0.9c0-10.3,0-20.5,0-30.8
			c0-15.9,0-31.8,0-47.7c0-1.7-0.6-3-2.1-3.8c-2.5-1.4-5.6,0.4-5.7,3.2c0,0.2,0,0.4,0,0.7c0,26.1,0,52.2,0,78.3
			c0,0.5-0.1,0.8-0.6,1.1c-1,0.5-1.9,1.1-2.9,1.5c-0.2,0.8-0.4,1.5-0.7,2.3c-1.4,3.4-4.2,5.6-7.8,6.1c2.6,0,5.3,0,7.9,0
			c0.8,0,1.6-0.2,2.3-0.6c1.8-0.8,3.5-1.7,5.2-2.6c0.2-0.1,0.6-0.1,0.9,0c1.8,0.8,3.5,1.8,5.3,2.6c0.7,0.3,1.5,0.5,2.2,0.5
			c14.2,0,28.3,0,42.5,0c2.5,0,4-1.6,4.1-4.1v-0.4c0-41.3,0-82.6,0-123.9C222,86,220.3,84,218.1,84z"/>
		<path class="st1" d="M225.9,138.5c1.3,0,2.5,0,3.8,0c0-1.2,0.2-2.2,0.9-3c1.1-1.3,2.7-1.7,4.3-1.2c1.6,0.6,2.6,2,2.6,3.6
			c0,7.9,0,15.7,0,23.6c0,2.2-1.1,3.7-2.9,4.2c-2.4,0.6-4.6-1.1-4.8-3.5c0-0.1,0-0.2,0-0.3c-1.3,0-2.5,0-3.8,0c0-2.6,0-5.2,0-7.8
			c1.2,0,2.5,0,3.8,0c0-2.6,0-5.1,0-7.8c-1.2,0-2.5,0-3.8,0C225.9,143.7,225.9,141.2,225.9,138.5z"/>
		<path class="st1" d="M206.4,150.2c0,4.7,0,9.4,0,14c0,2.8-2.5,5.2-5.2,5.4c-3.1,0.3-5.8-1.9-6.3-4.7c-0.1-0.4-0.1-0.7-0.1-1.1
			c0-9.1,0-18.2,0-27.3c0-2.4,1.5-4.6,3.8-5.4c2.3-0.8,4.7-0.3,6.4,1.5c0.9,1,1.5,2.2,1.5,3.6C206.4,140.9,206.4,145.5,206.4,150.2z
			"/>
	</g>
</g>
</svg>
