<?xml version="1.0" encoding="utf-8"?>
<!-- Generator: Adobe Illustrator 21.0.0, SVG Export Plug-In . SVG Version: 6.00 Build 0)  -->
<svg version="1.1" id="layer_x5F_storage" xmlns="http://www.w3.org/2000/svg" xmlns:xlink="http://www.w3.org/1999/xlink" x="0px"
	 y="0px" viewBox="0 0 250 250" style="enable-background:new 0 0 250 250;" xml:space="preserve">
<style type="text/css">
	.st0{fill:#E9E9E9;}
</style>
<g id="front">
	<g>
		<path class="st0" d="M95.8,156.3v-0.9C95.8,155.7,95.8,156,95.8,156.3z M95.8,156.3v-0.9C95.8,155.7,95.8,156,95.8,156.3z
			 M95.8,156.3v-0.9C95.8,155.7,95.8,156,95.8,156.3z M95.8,156.3v-0.9C95.8,155.7,95.8,156,95.8,156.3z M95.8,156.3v-0.9
			C95.8,155.7,95.8,156,95.8,156.3z M95.8,156.3v-0.9C95.8,155.7,95.8,156,95.8,156.3z M87.6,100.5v3.7c0.1-0.2,0.2-0.5,0.3-0.8
			C88.2,102.4,88,101.4,87.6,100.5z M87.6,203.5c0,0,0-0.1-0.1-0.1v3.6C88.2,206,88.2,204.8,87.6,203.5z M87.6,154.1
			C87.6,154.1,87.6,154.1,87.6,154.1l0,3.6C88.2,156.5,88.2,155.3,87.6,154.1z M95.8,156.3v-0.9C95.8,155.7,95.8,156,95.8,156.3z
			 M95.8,156.3v-0.9C95.8,155.7,95.8,156,95.8,156.3z M95.8,156.3v-0.9C95.8,155.7,95.8,156,95.8,156.3z M95.8,156.3v-0.9
			C95.8,155.7,95.8,156,95.8,156.3z M95.8,156.3v-0.9C95.8,155.7,95.8,156,95.8,156.3z"/>
		<path class="st0" d="M198.5,208c-0.6-1.7-1.6-3.1-2.9-4.2c-0.4-0.4-0.6-0.7-0.6-1.3c0-12.6,0-25.2,0-37.8c0-1.2-0.2-2.2-0.8-3.2
			c-0.9-1.7-1.7-3.4-2.6-5.1c-0.2-0.4-0.2-0.7,0-1c0.9-1.8,1.9-3.6,2.7-5.5c0.3-0.7,0.6-1.6,0.6-2.4c0-12.2,0-24.4,0-36.6
			c0-0.8-0.3-1.7-0.6-2.5c-0.9-1.9-1.8-3.7-2.7-5.5c-0.1-0.3-0.1-0.7,0-0.9c0.9-1.9,1.9-3.7,2.7-5.6c0.3-0.7,0.6-1.6,0.6-2.3
			c0-1.4,0-2.7,0-4c0-2.7,0-5.5,0-8.2c0-10.9,0-21.8,0-32.7c0-2.6-1.7-4.3-4.3-4.3h-0.5c-43.7,0-87.4,0-131.1,0
			c-2.1,0-4.1,1.8-4.1,4.1c0,15.1,0,30.2,0,45.3c0,0.7,0.2,1.4,0.5,2c0.9,1.9,1.8,3.8,2.8,5.6c0.2,0.5,0.3,0.8,0,1.3
			c-0.9,1.8-1.9,3.6-2.7,5.4c-0.3,0.7-0.6,1.6-0.6,2.4c0,12.2,0,24.4,0,36.6c0,0.8,0.2,1.7,0.6,2.4c0.9,1.9,1.8,3.7,2.8,5.6
			c0.2,0.4,0.2,0.7,0,1c-0.9,1.8-1.8,3.7-2.8,5.5c-0.4,0.8-0.6,1.6-0.6,2.6c0,12.7,0,25.5,0,38.2c0,0.5-0.1,0.8-0.5,1.1
			c-2,1.7-3.2,3.9-3.5,6.5c0,0.1-0.1,0.2-0.1,0.4v1.7c0.3,1,0.4,2,0.8,2.9c1.7,4.1,4.9,6.2,9.3,6.5c0.2,0,0.4,0,0.6,0h126.9
			c0.6,0,1.1,0,1.7-0.1c3.7-0.5,6.8-2.8,8.2-6.4c0.3-0.8,0.5-1.6,0.7-2.4c0,0,0-0.1,0-0.1v-2.5C198.9,209.5,198.7,208.7,198.5,208z
			 M61.9,213.5c-0.4,0-0.9,0-1.3-0.1c-1-0.3-1.5-1.2-1.4-2.3c0.1-1,0.9-1.7,1.9-1.7c0.2,0,0.4,0,0.6,0c7.2,0,14.4,0,21.6,0
			c1.5,0,2.8-0.4,3.8-1.6c0.2-0.2,0.3-0.5,0.4-0.7v-3.6c-0.7-1.4-1.9-2.2-3.5-2.3c-0.3,0-0.6,0-0.8,0h-20v-0.7c0-11.5,0-23.1,0-34.6
			c0-0.4,0.1-0.9,0.3-1.2c0.6-1.3,1.3-2.6,1.9-3.9c0.2-0.5,0.5-0.7,1.1-0.7c5.7,0,11.3,0,17,0c1.5,0,2.7-0.4,3.6-1.6
			c0.2-0.2,0.3-0.4,0.4-0.6V154c-0.7-1.5-2-2.3-3.7-2.3c-2.9,0-5.7,0-8.6,0c-3,0-6,0-8.9,0c-0.4,0-0.7-0.1-0.8-0.5
			c-0.7-1.4-1.4-2.8-2.1-4.2c-0.1-0.3-0.2-0.7-0.2-1c0-11.3,0-22.6,0-33.9c0-0.3,0.1-0.7,0.2-1c0.7-1.4,1.4-2.7,2-4.1
			c0.2-0.4,0.4-0.5,0.9-0.5c5.8,0,11.5,0,17.2,0c1.8,0,3.2-0.9,3.9-2.3v-3.7c-0.6-1.2-1.7-2-3.2-2.2c-0.4,0-0.8-0.1-1.2-0.1
			c-5.6,0-11.1,0-16.7,0c-0.5,0-0.8-0.1-1-0.6c-0.7-1.5-1.8-3-2.1-4.6c-0.4-1.6-0.1-3.3-0.1-5V53h123.5v0.7c0,9.3,0,18.7,0,28
			c0,2.7,0,5.5,0,8.2v2.6c0,0.4-0.1,0.8-0.3,1.1c-0.7,1.4-1.4,2.7-2,4.1c-0.2,0.5-0.5,0.6-1,0.6c-8.6,0-17.3,0-25.9,0h-8.2
			c-13.7,0-27.4,0-41.2,0h-7.6c-0.2,0-0.4,0-0.6,0c-1.5,0.1-2.7,0.8-3.4,2.2c-1.4,2.6,0.4,5.9,3.4,6.1c0.2,0,0.5,0,0.7,0h7.5
			c13.7,0,27.4,0,41.1,0c2.7,0,5.5,0,8.3,0c8.6,0,17.2,0,25.8,0c0.6,0,0.9,0.2,1.1,0.7c0.7,1.5,1.8,3,2.1,4.6c0.4,1.6,0.1,3.3,0.1,5
			c0,9.7,0,19.4,0,29.1c0,0.5-0.2,1.1-0.4,1.5c-0.6,1.3-1.3,2.6-1.9,3.9c-0.2,0.4-0.5,0.6-0.9,0.6c-8.6,0-17.2,0-25.8,0H99.9
			c-1.8,0-3.3,1.1-3.9,2.8c-0.1,0.3-0.2,0.5-0.2,0.8v0.9c0.1,1.1,0.7,2.1,1.6,2.8c0.7,0.6,1.6,0.8,2.5,0.9h8.3c13.7,0,27.4,0,41.1,0
			h8.2c8.7,0,17.4,0,26,0c0.4,0,0.7,0.1,0.9,0.5c0.7,1.4,1.4,2.9,2.1,4.3c0.1,0.2,0.2,0.5,0.2,0.8c0,11.7,0,23.4,0,35.1v0.4h-37.4
			c-13.7,0-27.4,0-41.2,0h-7.4c-0.3,0-0.6,0-0.8,0c-1.4,0.2-2.6,0.8-3.3,2.2c-1.4,2.5,0.3,5.6,3.2,6c0,0,0.1,0,0.1,0
			c0.4,0,0.8,0,1.2,0h87.1c0.3,0,0.5,0,0.8,0c1.1,0.1,1.9,1,1.9,2.1c0,1-0.7,1.8-1.6,2c-0.1,0-0.2,0-0.3,0c-0.3,0-0.5,0-0.8,0H61.9z
			"/>
		<path class="st0" d="M112.7,40.6c0-1.4,0-2.7,0-4c-1.2,0-2.3-0.2-3.2-1c-1.3-1.1-1.8-2.9-1.2-4.6c0.6-1.7,2.1-2.7,3.8-2.7
			c8.3,0,16.6,0,24.9,0c2.3,0,3.9,1.1,4.4,3.1c0.6,2.5-1.1,4.9-3.7,5.1c-0.1,0-0.2,0-0.3,0c0,1.3,0,2.7,0,4.1c-2.8,0-5.5,0-8.3,0
			c0-1.3,0-2.6,0-4c-2.8,0-5.4,0-8.2,0c0,1.3,0,2.6,0,4C118.2,40.6,115.5,40.6,112.7,40.6z"/>
		<path class="st0" d="M125,61.2c4.9,0,9.9,0,14.8,0c3,0,5.5,2.6,5.7,5.5c0.3,3.3-2,6.1-5,6.7c-0.4,0.1-0.8,0.1-1.2,0.1
			c-9.6,0-19.2,0-28.8,0c-2.6,0-4.9-1.6-5.8-4c-0.9-2.4-0.3-5,1.6-6.7c1.1-1,2.3-1.6,3.8-1.6C115.2,61.2,120.1,61.2,125,61.2z"/>
	</g>
</g>
</svg>
