<svg id="layer_storage" xmlns="http://www.w3.org/2000/svg" viewBox="0 0 148.19 193.44"><defs><style>.cls-1{fill:#e9e9e9;}</style></defs><title>storage2</title><g id="front"><path class="cls-1" d="M95.84,156.33v-.94A4,4,0,0,0,95.84,156.33Zm0,0v-.94A4,4,0,0,0,95.84,156.33Zm0,0v-.94A4,4,0,0,0,95.84,156.33Zm0,0v-.94A4,4,0,0,0,95.84,156.33Zm0,0v-.94A4,4,0,0,0,95.84,156.33Zm0,0v-.94A4,4,0,0,0,95.84,156.33Zm-8.25-55.82v3.69a4.79,4.79,0,0,0,.28-.76A4.11,4.11,0,0,0,87.59,100.51Zm.06,103a.56.56,0,0,0-.06-.1v3.64A3.88,3.88,0,0,0,87.65,203.55Zm0-49.48v3.64A3.87,3.87,0,0,0,87.6,154.06Zm8.24,2.27v-.94A4,4,0,0,0,95.84,156.33Zm0,0v-.94A4,4,0,0,0,95.84,156.33Zm0,0v-.94A4,4,0,0,0,95.84,156.33Zm0,0v-.94A4,4,0,0,0,95.84,156.33Zm0,0v-.94A4,4,0,0,0,95.84,156.33Z" transform="translate(-50.91 -28.28)"/><path class="cls-1" d="M198.46,208a9.46,9.46,0,0,0-2.94-4.19,1.44,1.44,0,0,1-.56-1.26q0-18.9,0-37.79a6.76,6.76,0,0,0-.77-3.23c-.9-1.69-1.71-3.43-2.59-5.14a1,1,0,0,1,0-1c.94-1.82,1.9-3.64,2.74-5.5a6,6,0,0,0,.59-2.42q.06-18.3,0-36.62a6.34,6.34,0,0,0-.6-2.47c-.85-1.86-1.83-3.66-2.71-5.52a1.23,1.23,0,0,1,0-.94c.9-1.87,1.89-3.69,2.75-5.57a5.81,5.81,0,0,0,.57-2.34c0-1.35,0-2.69,0-4,0-2.74,0-5.48,0-8.22q0-16.34,0-32.66a4.07,4.07,0,0,0-4.31-4.31h-.45q-65.53,0-131.05,0a4.18,4.18,0,0,0-4.1,4.1q0,22.65,0,45.3a5.15,5.15,0,0,0,.48,2c.89,1.9,1.83,3.76,2.8,5.61a1.2,1.2,0,0,1,0,1.26c-.94,1.79-1.87,3.6-2.7,5.44a6,6,0,0,0-.58,2.42q-.06,18.28,0,36.55a6,6,0,0,0,.57,2.42c.85,1.88,1.82,3.71,2.77,5.55a1,1,0,0,1,0,1c-.94,1.82-1.82,3.66-2.76,5.48a5.46,5.46,0,0,0-.61,2.55q0,19.11,0,38.23a1.27,1.27,0,0,1-.5,1.1A9.89,9.89,0,0,0,51,210.22a2.38,2.38,0,0,1-.11.37v1.68a21.06,21.06,0,0,0,.79,2.92A10.17,10.17,0,0,0,61,221.71H188.46a11,11,0,0,0,1.69-.12,10.21,10.21,0,0,0,8.2-6.41,23.3,23.3,0,0,0,.71-2.4l0-.12V210.2C198.88,209.45,198.71,208.7,198.46,208Zm-136.6,5.49a4.78,4.78,0,0,1-1.28-.09,2,2,0,0,1-1.39-2.28,1.93,1.93,0,0,1,1.89-1.71c.21,0,.43,0,.64,0,7.22,0,14.43,0,21.65,0a4.39,4.39,0,0,0,3.78-1.62,4.93,4.93,0,0,0,.43-.69v-3.64a4,4,0,0,0-3.5-2.3,8.27,8.27,0,0,0-.84,0h-20v-.75q0-17.31,0-34.62a3,3,0,0,1,.3-1.23c.61-1.3,1.31-2.57,1.92-3.88a1,1,0,0,1,1.07-.68c5.66,0,11.32,0,17,0a4.21,4.21,0,0,0,3.63-1.64,4.29,4.29,0,0,0,.41-.64V154a3.92,3.92,0,0,0-3.67-2.3c-2.85,0-5.7,0-8.56,0s-6,0-8.94,0a.78.78,0,0,1-.83-.52c-.67-1.4-1.4-2.78-2.07-4.17a2.41,2.41,0,0,1-.23-1q0-16.94,0-33.9a2.54,2.54,0,0,1,.25-1c.66-1.38,1.38-2.73,2-4.12a.82.82,0,0,1,.88-.53H83.7a4.19,4.19,0,0,0,3.89-2.28v-3.69a4.05,4.05,0,0,0-3.17-2.22,10.69,10.69,0,0,0-1.23-.06H66.53a.91.91,0,0,1-1-.59c-.71-1.53-1.77-3-2.14-4.55a22.32,22.32,0,0,1-.11-5V53h123.5v.72q0,14,0,28,0,4.11,0,8.22v2.55a2.66,2.66,0,0,1-.25,1.11c-.65,1.36-1.36,2.69-2,4.05a.9.9,0,0,1-1,.6h-83l-.61,0a4.07,4.07,0,0,0-3.43,2.16,4.12,4.12,0,0,0,3.42,6.05c.24,0,.47,0,.71,0h82.78a1,1,0,0,1,1.12.69c.7,1.53,1.76,3,2.14,4.55a22.32,22.32,0,0,1,.09,5q0,14.55,0,29.11a3.79,3.79,0,0,1-.37,1.53c-.6,1.3-1.3,2.57-1.91,3.87a.87.87,0,0,1-.94.57q-12.89,0-25.8,0H99.94a4.14,4.14,0,0,0-4.1,3.65v.94a4.17,4.17,0,0,0,4.1,3.66H183.6a.81.81,0,0,1,.85.5c.69,1.44,1.42,2.85,2.12,4.29a2,2,0,0,1,.2.79q0,17.57,0,35.14v.43h-86a8,8,0,0,0-.84,0,4,4,0,0,0-3.31,2.18,4.08,4.08,0,0,0,3.16,6h.14c.38,0,.77,0,1.15,0H188.2c.26,0,.52,0,.77,0a2,2,0,0,1,1.89,2.07,2,2,0,0,1-1.61,2,1.48,1.48,0,0,1-.28,0c-.26,0-.52,0-.77,0Z" transform="translate(-50.91 -28.28)"/><path class="cls-1" d="M112.66,40.57v-4a4.5,4.5,0,0,1-3.23-1A4.1,4.1,0,0,1,108.19,31,4,4,0,0,1,112,28.28H137c2.33,0,3.93,1.14,4.42,3.11a4.08,4.08,0,0,1-3.7,5.08l-.3,0v4.05h-8.25v-4h-8.2v4Z" transform="translate(-50.91 -28.28)"/><path class="cls-1" d="M125,61.23c4.95,0,9.89,0,14.84,0a6.1,6.1,0,0,1,5.74,5.51,6.19,6.19,0,0,1-5,6.66,6.41,6.41,0,0,1-1.16.12q-14.42,0-28.84,0a6.16,6.16,0,0,1-4.12-10.73,5.58,5.58,0,0,1,3.8-1.57C115.18,61.22,120.08,61.23,125,61.23Z" transform="translate(-50.91 -28.28)"/></g></svg>