<?xml version="1.0" encoding="utf-8"?>
<!-- Generator: Adobe Illustrator 21.0.0, SVG Export Plug-In . SVG Version: 6.00 Build 0)  -->
<svg version="1.1" xmlns="http://www.w3.org/2000/svg" xmlns:xlink="http://www.w3.org/1999/xlink" x="0px" y="0px"
	 viewBox="0 0 600 600" style="enable-background:new 0 0 600 600;" xml:space="preserve">
<style type="text/css">
	.st0{fill:#79CC6D;}
	.st1{fill:#D8D8D8;}
	.st2{fill:#B7B7B7;}
	.st3{fill:#DE8F00;}
	.st4{fill:#F8A200;}
	.st5{fill:none;}
</style>
<g id="Status">
	<path class="st0" d="M300.9,41.3c141.6,0,256.4,114.8,256.4,256.4S442.5,554.1,300.9,554.1S44.5,439.3,44.5,297.7
		S159.3,41.3,300.9,41.3 M300.9,32.3c-35.8,0-70.6,7-103.3,20.9c-31.6,13.4-60,32.5-84.4,56.9s-43.5,52.8-56.9,84.4
		c-13.8,32.7-20.9,67.5-20.9,103.3s7,70.6,20.9,103.3c13.4,31.6,32.5,60,56.9,84.4s52.8,43.5,84.4,56.9
		c32.7,13.8,67.5,20.9,103.3,20.9s70.6-7,103.3-20.9c31.6-13.4,60-32.5,84.4-56.9c24.4-24.4,43.5-52.8,56.9-84.4
		c13.8-32.7,20.9-67.5,20.9-103.3s-7-70.6-20.9-103.3c-13.4-31.6-32.5-60-56.9-84.4c-24.4-24.4-52.8-43.5-84.4-56.9
		C371.5,39.3,336.8,32.3,300.9,32.3L300.9,32.3z"/>
</g>
<g id="background">
	<circle class="st1" cx="300" cy="297.7" r="256.4"/>
</g>
<g id="dark_grey">
	<circle class="st2" cx="300" cy="297.7" r="230.5"/>
</g>
<g id="full">
	<circle class="st3" cx="300" cy="297.7" r="230.5"/>
	<circle class="st4" cx="300" cy="298.4" r="205.7"/>
	<circle class="st3" cx="155.3" cy="277" r="8"/>
	<circle class="st3" cx="300.7" cy="285" r="8"/>
	<circle class="st3" cx="339.8" cy="197.8" r="8"/>
	<circle class="st3" cx="232.7" cy="213.7" r="8"/>
	<circle class="st3" cx="383.3" cy="356.3" r="8"/>
	<circle class="st3" cx="399.2" cy="424.8" r="8"/>
	<circle class="st3" cx="444.7" cy="306" r="8"/>
	<circle class="st3" cx="407.2" cy="269" r="8"/>
	<circle class="st3" cx="217" cy="315.2" r="7.7"/>
	<circle class="st3" cx="277.5" cy="398.5" r="7.7"/>
	<circle class="st3" cx="308.7" cy="456.7" r="7.7"/>
	<circle class="st3" cx="197.1" cy="398.5" r="7.7"/>
</g>
<g id="half-full">
	<path class="st3" d="M494,173.2c-10.6-1.9-22.4-3.3-34.2-4.3c-28.1-2.3-56.2-1.9-68.6,1.1c-24.8,6-110.2,20-194.2,1
		c-21-4.8-39.1-6-54.4-5.1c-14.5,0.8-26.6,3.5-36.3,6.8c-23.3,36-36.8,78.9-36.8,125C69.5,425,172.7,528.2,300,528.2
		S530.5,425,530.5,297.6C530.5,251.8,517.1,209.1,494,173.2z"/>
	<path class="st4" d="M505.7,298.4c0,113.6-92.1,205.7-205.7,205.7S94.3,412,94.3,298.4c0-50.5,18.2-96.7,48.3-132.4
		c15.4-0.9,33.5,0.3,54.4,5.1c84,19,169.4,5,194.2-1c12.4-3,40.5-3.4,68.6-1.1C488.5,204.2,505.7,249.3,505.7,298.4z"/>
	<circle class="st3" cx="155.3" cy="277" r="8"/>
	<circle class="st3" cx="300.7" cy="285" r="8"/>
	<circle class="st3" cx="339.8" cy="197.8" r="8"/>
	<circle class="st3" cx="232.7" cy="213.7" r="8"/>
	<circle class="st3" cx="383.3" cy="356.3" r="8"/>
	<circle class="st3" cx="399.2" cy="424.8" r="8"/>
	<circle class="st3" cx="444.7" cy="306" r="8"/>
	<circle class="st3" cx="407.2" cy="269" r="8"/>
	<circle class="st3" cx="217" cy="315.2" r="7.7"/>
	<circle class="st3" cx="277.5" cy="398.5" r="7.7"/>
	<circle class="st3" cx="308.7" cy="456.7" r="7.7"/>
	<circle class="st3" cx="197.1" cy="398.5" r="7.7"/>
	<path class="st5" d="M58.9,314.1c0,0,39.9-37.8,127.8-18.8s177.4,5,203.4-1S507.4,292.7,534,308"/>
	<path class="st5" d="M47.7,435.6c0,0,39.9-37.8,127.8-18.8s177.4,5,203.4-1c25.9-6,117.2-1.6,143.9,13.7"/>
</g>
<g id="half">
	<path class="st3" d="M530.3,306.1c-4.5,123.4-105.9,222-230.3,222c-124.3,0-225.7-98.4-230.3-221.6c5.8-3.4,14-7.2,24.7-10.4
		c20.9-6.2,51.5-9.7,92.5-0.9c87.9,19,177.4,5,203.4-1c19.8-4.6,77.4-3.1,115.5,4.6C515.5,300.9,524.1,303.3,530.3,306.1z"/>
	<path class="st4" d="M505.7,298.9c-0.3,113.4-92.3,205.2-205.7,205.2c-113.6,0-205.7-92.1-205.7-205.7c0-0.7,0-1.5,0-2.2
		c20.9-6.2,51.5-9.7,92.5-0.9c87.9,19,177.4,5,203.4-1C409.9,289.7,467.6,291.2,505.7,298.9z"/>
	<circle class="st3" cx="383.3" cy="356.3" r="8"/>
	<circle class="st3" cx="399.2" cy="424.8" r="8"/>
	<circle class="st3" cx="444.7" cy="306" r="8"/>
	<circle class="st3" cx="217" cy="315.2" r="7.7"/>
	<circle class="st3" cx="277.5" cy="398.5" r="7.7"/>
	<circle class="st3" cx="308.7" cy="456.7" r="7.7"/>
	<circle class="st3" cx="197.1" cy="398.5" r="7.7"/>
	<path class="st5" d="M75,189.8c0,0,38.1-37.8,122.1-18.8s169.4,5,194.2-1c24.8-6,111.9-1.6,137.3,13.7"/>
	<path class="st5" d="M59,314c0,0,3.5-3.3,10.7-7.5c5.8-3.4,14-7.2,24.7-10.4c20.9-6.2,51.5-9.7,92.5-0.9c87.9,19,177.4,5,203.4-1
		c19.8-4.6,77.4-3.1,115.6,4.6c9.8,2,18.4,4.4,24.6,7.2c1.3,0.6,2.5,1.2,3.7,1.8"/>
</g>
<g id="almost-empty">
	<path class="st3" d="M495,420.6c-40.8,64.7-112.9,107.6-195,107.6c-85,0-159.3-46-199.2-114.5c8.1-1.4,17.3-2.2,27.4-2.2
		c13.9,0,29.6,1.5,47.3,5.3c87.9,19,177.4,5,203.4-1c15.6-3.6,54.9-3.4,89.5,0.6C477.8,417.5,486.9,418.9,495,420.6z"/>
	<path class="st4" d="M468.5,416.5c-37.2,53-98.8,87.6-168.5,87.6c-71.8,0-135-36.8-171.8-92.5c13.9,0,29.6,1.5,47.3,5.3
		c87.9,19,177.4,5,203.4-1C394.5,412.2,433.8,412.4,468.5,416.5z"/>
	<circle class="st3" cx="399.2" cy="424.8" r="8"/>
	<circle class="st3" cx="308.7" cy="456.7" r="7.7"/>
</g>
</svg>
