<?xml version="1.0" encoding="utf-8"?>
<!-- Generator: Adobe Illustrator 21.0.0, SVG Export Plug-In . SVG Version: 6.00 Build 0)  -->
<svg version="1.1" id="tap_x5F_layer" xmlns="http://www.w3.org/2000/svg" xmlns:xlink="http://www.w3.org/1999/xlink" x="0px"
	 y="0px" viewBox="0 0 250 250" style="enable-background:new 0 0 250 250;" xml:space="preserve">
<path id="tap" d="M222,23c-4.8-1.2-9.1,1.2-10.1,6.2c-1.7,8.7-3,17.6-4.5,26.4c-6.4,3.6-7.3,5.7-5.3,12.6c0,2.4,0,4.8,0,7.2
	c-6.2,2-12.6,0.3-18.9,1c-4.4,0.5-7.1-0.6-7.1-5.4v-0.2c-0.1-2.3-1.4-3.8-3.5-4.5c-1.7-1-3.5-0.7-5.2-0.7c-6.1,0-12.2-0.1-18.4,0
	c-3.4,0.1-4.5-1.2-4.4-4.5c0.2-4.8,0.1-9.6,0-14.3c-0.1-3.4-1.9-5.6-5.1-6.5c-3.3-0.9-6.3,0.1-7.7,3c-1.5,3.3-3.9,3.5-6.9,3.6
	c-7.9,0.2-15.8-0.9-23.7,0.7c-31,2.4-58.1,29.9-59.1,60.9c-0.8,23-0.2,46-0.4,69c0,2.8,1,4.2,3.8,4.1c0,9.2-0.1,18.4-0.1,27.7
	c-1.8,0-3.5,0.1-5.3,0.2c-2,0.1-3.6,0.9-3.5,3.1c0,3.2-0.8,6.5,0.6,9.6c-3.9,1.4-8,0.3-12,0.7c-1.7,0.1-3.3,0.1-4.2,2
	c-2.9,6.1,0.2,11.4,6.9,11.4c30.9,0,61.7,0,92.5,0c2.1,0,4.2,0.3,6.2-0.6l0,0c3.6-1.6,2.1-4.8,2.3-7.3c0.4-3.9-1.2-5.6-5.4-5.5
	c-3.8,0.1-7.6,0.9-11.3-0.6c0.3-0.8,0.7-1.6,0.7-2.5c0.8-9.8,0.7-9.8-8.9-10.3c0-9.2,0-18.5,0-27.7c1.2-0.3,2.6,0.2,3.6-0.9
	c0.8-1.7,0.5-3.5,0.5-5.3c0-15.5,0-31.1,0-46.6c0-5.6,2.2-7.8,7.9-8c4.3-0.1,8.7-0.1,13-0.2c0.2,0.1,0.5,0.1,0.7,0.1
	c0.2,0.9,0.3,1.8,0.5,2.6c0.8,5.2,3.5,7.7,7.8,7.4c4-0.3,6.3-3.2,6.4-8.2c0.1-3.7,0-7.4,0-11.2c0-6.1,0-5.9,6.2-6.1
	c7.3-0.2,14.6,1,21.8-0.7c3.1-1,3.8-3.3,3.5-6.2c-0.1-1.2-0.1-2.4-0.2-3.6c0.1-0.1,0.2-0.2,0.3-0.3c0.3,0.8,0.2,1.7,0.1,2.6
	c0.1-0.2,0.1-0.4,0.2-0.6c0-0.8-0.1-1.6-0.1-2.3c0.1-0.1,0.2-0.2,0.3-0.3c0.2,0.7,0.2,1.3,0.2,2c0.8-1.2,2.3-1.6,4.3-1.4
	c1.3,0.2,2.7,0.2,4,0c4.6-0.8,6.5,1.5,7.7,5.8c1.8,6.9,4.3,13.6,6.4,20.4c0.6,2.1,1.2,4.2,1.8,6.3c-1.3,5.4-0.9,6,4.5,6
	c2.2,0,4.5,0.1,6.7,0c1.4,0,3.3,0.4,3.8-1.5c0.5-1.7,0.6-3.6-1.4-4.7c-0.9-3-1.7-6-2.6-9c-1.4-4.4-2.5-8.9-2.2-13.6
	c0.4-5.9,3.2-9,9-9.5c2.7-0.2,3.7-1.4,3.7-3.9c0-2.2,0-4.5,0-6.7c0-7.1,0-7.1-7.1-7.4c-0.1-2.7-0.2-5.3-0.3-8
	c2.3-4.1,0-7.8-0.9-11.7c4.7-7.7,10.1-14.9,13.5-23.4C229,27.9,226.9,24.2,222,23z M212.4,56.8c-0.1-0.1-0.1-0.2-0.2-0.2
	c0.1,0,0.2,0.1,0.3,0.1C212.5,56.7,212.5,56.8,212.4,56.8z"/>
</svg>
